<svg width="81" height="81" viewBox="0 0 81 81" fill="none" xmlns="http://www.w3.org/2000/svg">
<g filter="url(#filter0_d_14_253)">
<path d="M47.2834 58.2799C46.8248 59.1176 45.7866 61.2956 44.0637 61.2956C43.3692 61.3102 42.6892 61.0854 42.1274 60.6556C40.7898 59.5566 40.6943 57.6634 40.8216 55.9646C41.1401 51.9169 42.3408 48.0132 43.5223 44.1498C44.7038 40.2864 45.8822 36.3626 46.1178 32.3116C46.3535 28.2605 45.5509 23.995 43.1465 20.8185C39.949 16.5965 34.1083 14.9781 29.2325 16.6434C25.1529 18.0373 21.7516 21.6461 20.7325 26.0323C19.7388 30.3045 20.9745 34.8347 22.8981 38.745C19.1656 38.5105 15.5287 41.6836 15.0573 45.5873C14.586 49.4909 17.3471 53.5219 21.0159 54.2791C24.6847 55.0364 28.6943 52.4094 29.6497 48.6097C30.5382 45.1215 29.0764 41.4893 27.5573 38.2525C26.0382 35.0156 24.3726 31.5509 24.8567 27.979C25.3694 24.1759 28.5478 20.976 32.1815 20.537C35.8153 20.0981 39.5605 22.4034 41.0382 25.8982C42.0637 28.3309 42.0446 31.1154 41.6752 33.7457C40.7197 40.3869 37.5987 46.5255 36.6815 53.1801C36.3216 55.8004 36.3216 58.5413 37.2739 61.0008C38.2261 63.4602 40.2707 65.5477 42.7611 65.923C45.1529 66.2849 47.6974 65.1926 49.3694 63.3597C51.0414 61.5268 51.9681 59.0037 52.9236 56.6783C55.8471 49.5278 58.5382 42.27 61.4331 35.1061L64.8344 26.7091C64.9498 26.4231 65.0106 26.1159 65.0132 25.8052C65.0158 25.4945 64.9602 25.1863 64.8496 24.8982C64.739 24.61 64.5756 24.3477 64.3686 24.126C64.1616 23.9043 63.9152 23.7278 63.6433 23.6063C63.3715 23.4849 63.0795 23.4209 62.7842 23.4182C62.4889 23.4154 62.1959 23.4739 61.9221 23.5903C61.6483 23.7067 61.3989 23.8786 61.1882 24.0964C60.9775 24.3142 60.8097 24.5735 60.6943 24.8595L47.2834 58.2799ZM25.6624 46.5958C25.6717 47.4979 25.3401 48.3668 24.7404 49.0115C24.1408 49.6563 23.3223 50.024 22.465 50.0337C21.6077 50.0435 20.7818 49.6946 20.169 49.0637C19.5562 48.4328 19.2067 47.5716 19.1974 46.6696C19.1928 46.2229 19.2719 45.7797 19.4301 45.3652C19.5883 44.9508 19.8225 44.5731 20.1194 44.2539C20.4164 43.9347 20.7701 43.6801 21.1605 43.5047C21.551 43.3293 21.9704 43.2365 22.3949 43.2317C22.8194 43.2268 23.2406 43.31 23.6346 43.4765C24.0285 43.6429 24.3875 43.8894 24.6909 44.2018C24.9943 44.5142 25.2363 44.8864 25.403 45.2971C25.5696 45.7079 25.6578 46.1492 25.6624 46.5958Z" fill="#DFF6E9"/>
</g>
<defs>
<filter id="filter0_d_14_253" x="0.00483704" y="0.998459" width="80.0084" height="79.9935" filterUnits="userSpaceOnUse" color-interpolation-filters="sRGB">
<feFlood flood-opacity="0" result="BackgroundImageFix"/>
<feColorMatrix in="SourceAlpha" type="matrix" values="0 0 0 0 0 0 0 0 0 0 0 0 0 0 0 0 0 0 127 0" result="hardAlpha"/>
<feOffset/>
<feGaussianBlur stdDeviation="7.5"/>
<feComposite in2="hardAlpha" operator="out"/>
<feColorMatrix type="matrix" values="0 0 0 0 0.87451 0 0 0 0 0.964706 0 0 0 0 0.913725 0 0 0 1 0"/>
<feBlend mode="normal" in2="BackgroundImageFix" result="effect1_dropShadow_14_253"/>
<feBlend mode="normal" in="SourceGraphic" in2="effect1_dropShadow_14_253" result="shape"/>
</filter>
</defs>
</svg>
