<svg width="40" height="40" viewBox="0 0 40 40" fill="none" xmlns="http://www.w3.org/2000/svg">
<path d="M25.8267 33.824C25.4598 34.4941 24.6293 36.2365 23.2509 36.2365C22.6953 36.2482 22.1513 36.0684 21.7019 35.7245C20.6318 34.8453 20.5554 33.3307 20.6573 31.9717C20.9121 28.7335 21.8726 25.6106 22.8178 22.5198C23.763 19.4291 24.7057 16.2901 24.8942 13.0493C25.0828 9.80842 24.4407 6.39601 22.5172 3.85479C19.9592 0.477227 15.2866 -0.817506 11.386 0.514756C8.12227 1.62989 5.40125 4.5169 4.58596 8.02581C3.79106 11.4436 4.77959 15.0678 6.31844 18.196C3.33246 18.0084 0.422902 20.5469 0.0458321 23.6698C-0.331238 26.7927 1.87768 30.0175 4.81271 30.6233C7.74774 31.2291 10.9554 29.1275 11.7197 26.0877C12.4305 23.2972 11.2611 20.3914 10.0458 17.802C8.83055 15.2125 7.49806 12.4408 7.88532 9.58325C8.29551 6.54076 10.8382 3.98078 13.7452 3.62962C16.6522 3.27846 19.6484 5.12272 20.8305 7.91859C21.6509 9.86471 21.6356 12.0923 21.3401 14.1966C20.5758 19.5095 18.079 24.4204 17.3452 29.7441C17.0573 31.8403 17.0573 34.0331 17.8191 36.0006C18.5809 37.9682 20.2165 39.6382 22.2089 39.9384C24.1223 40.2279 26.1579 39.3541 27.4955 37.8878C28.8331 36.4215 29.5745 34.403 30.3388 32.5426C32.6777 26.8222 34.8305 21.016 37.1465 15.2849L39.8675 8.5673C39.9598 8.33848 40.0084 8.09277 40.0105 7.84419C40.0126 7.59562 39.9682 7.34904 39.8797 7.11854C39.7912 6.88804 39.6604 6.67814 39.4948 6.50081C39.3293 6.32349 39.1321 6.18221 38.9146 6.08505C38.6971 5.9879 38.4636 5.93676 38.2274 5.93456C37.9911 5.93236 37.7567 5.97914 37.5377 6.07224C37.3186 6.16533 37.1191 6.30292 36.9505 6.47713C36.782 6.65135 36.6477 6.85879 36.5554 7.0876L25.8267 33.824ZM8.52991 24.4767C8.53734 25.1983 8.27202 25.8935 7.79231 26.4092C7.3126 26.925 6.65779 27.2192 5.97195 27.227C5.2861 27.2348 4.62539 26.9557 4.13517 26.4509C3.64495 25.9462 3.36537 25.2573 3.35793 24.5357C3.35425 24.1784 3.4175 23.8238 3.54406 23.4922C3.67061 23.1606 3.85801 22.8585 4.09554 22.6031C4.33306 22.3477 4.61608 22.1441 4.92841 22.0038C5.24075 21.8634 5.5763 21.7892 5.9159 21.7854C6.25549 21.7815 6.59249 21.848 6.90764 21.9812C7.2228 22.1143 7.50994 22.3115 7.75267 22.5614C7.99541 22.8113 8.18898 23.1091 8.32234 23.4377C8.4557 23.7663 8.52623 24.1194 8.52991 24.4767Z" fill="#DFF6E9"/>
</svg>
